<svg xmlns="http://www.w3.org/2000/svg" viewBox="0 0 300 400" role="img" aria-label="Concert poster">
  <defs>
    <linearGradient id="paper" x1="0" x2="1" y1="0" y2="1">
      <stop offset="0" stop-color="#f2fff4"/>
      <stop offset="0.62" stop-color="#e3efe2"/>
      <stop offset="1" stop-color="#cbdccc"/>
    </linearGradient>
    <radialGradient id="shade" cx="50%" cy="45%" r="70%">
      <stop offset="0.68" stop-color="#000" stop-opacity="0"/>
      <stop offset="0.92" stop-color="#10201a" stop-opacity="0.15"/>
      <stop offset="1" stop-color="#10201a" stop-opacity="0.27"/>
    </radialGradient>
  </defs>
  <rect width="300" height="400" rx="26" fill="url(#paper)"/>
  <g fill="#324b4f">
    <rect x="42" y="139" width="216" height="7" rx="4"/>
    <rect x="42" y="167" width="216" height="7" rx="4"/>
    <rect x="42" y="195" width="216" height="7" rx="4"/>
    <rect x="42" y="223" width="216" height="7" rx="4"/>
    <rect x="42" y="251" width="216" height="7" rx="4"/>
  </g>
  <g fill="#2f6f5f">
    <ellipse cx="133" cy="250" rx="50" ry="39" transform="rotate(-10 133 250)"/>
    <rect x="174" y="111" width="32" height="141"/>
    <path d="M206 111c40 5 67 28 78 61-33-21-51-25-78-24z"/>
    <circle cx="78" cy="105" r="17" opacity="0.9"/>
  </g>
  <rect width="300" height="400" rx="26" fill="url(#shade)"/>
</svg>
